<svg xmlns="http://www.w3.org/2000/svg" viewBox="0 0 314.02 385.71"><defs><clipPath id="a"><path fill="none" d="M0 0h314v385.7H0z"/></clipPath></defs><g clip-path="url(#a)" fill="#1d1d1b"><path d="M77.8 248.2c0-6.4-4.5-10.3-12.3-10.3a27.3 27.3 0 0 0-6.5.6V259a24.7 24.7 0 0 0 5.2.5c8.4 0 13.6-4.2 13.6-11.3M126.3 238a32.6 32.6 0 0 0-7 .8v45.5a28.4 28.4 0 0 0 5.4.3c14.2 0 23.5-7.7 23.5-24.4 0-14.4-8.4-22-22-22"/><path d="M216.5 0h-155a41 41 0 0 0-41 41v152h-4A16.5 16.5 0 0 0 0 209.3v100.3a16.5 16.5 0 0 0 16.5 16.6h4v18.4a41 41 0 0 0 41 41H273a41 41 0 0 0 41-41V97.2zm-173 227.5a129.4 129.4 0 0 1 21.2-1.4c9.7 0 16.6 2 21.2 5.6a20.3 20.3 0 0 1 7.4 16c0 7-2.3 12.7-6.4 16.6-5.4 5-13.4 7.4-22.6 7.4a40.2 40.2 0 0 1-5.4-.3V296H43.4zm229.5 133H61.6a16 16 0 0 1-16-15.8v-18.4H243a16.5 16.5 0 0 0 16.5-16.6V209.4a16.5 16.5 0 0 0-16.5-16.5h-197V41a16 16 0 0 1 15.8-15.8L207 25v53.8a28.5 28.5 0 0 0 28.6 28.5l52.7-.2.6 237.7a16 16 0 0 1-16 16m-169.6-65v-68.2a141.5 141.5 0 0 1 21.3-1.4c13.2 0 21.8 2.4 28.5 7.5 7.2 5.4 11.7 14 11.7 26.2 0 13.3-5 22.5-11.6 28.2-7.4 6-18.5 9-32 9a136.2 136.2 0 0 1-18-1M216 255.3v12.8h-25v28h-15.7v-69.6h42.5v13H191v15.8z"/></g></svg>
